<?xml version="1.0" standalone="no"?>
<!DOCTYPE svg PUBLIC "-//W3C//DTD SVG 1.1//EN" "http://www.w3.org/Graphics/SVG/1.1/DTD/svg11.dtd">
<svg xmlns="http://www.w3.org/2000/svg" width="420" height="591" viewBox="0 0 420 591" fill="none">
<path d="M310.632 32.8887C308.074 30.7823 307.708 27.0011 309.814 24.4429L328.139 2.18634C330.246 -0.371796 334.027 -0.738075 336.585 1.36825C339.143 3.47457 339.51 7.25586 337.403 9.814L319.078 32.0706C316.971 34.6287 313.19 34.995 310.632 32.8887Z" fill="#000000"/>
<path d="M349 58.5545C349 55.2407 351.686 52.5545 355 52.5545H368C371.314 52.5545 374 55.2407 374 58.5545C374 61.8682 371.314 64.5545 368 64.5545H355C351.686 64.5545 349 61.8682 349 58.5545Z" fill="#000000"/>
<path d="M234.46 72.5549C232.491 81.8392 238.587 92.2334 249.722 93.1477L263.007 94.2385C266.274 94.5068 269.356 95.7103 271.911 97.6545C271.096 105.147 264.6 112.699 253.501 117.055H133.497C107.997 117.055 45.4971 151.555 45.4971 223.055C45.4975 294.554 117.497 326.055 128.997 326.055H311.5C360 326.055 420 382.555 420 445.555C420 508.555 359.298 563.555 311.5 563.555H67.9971V521.555H293C350.5 521.555 375.5 479.555 375.5 445.555C375.5 411.555 349 370.055 293 370.055H151.5C55.7571 370.055 5.0003 291.555 4.50005 223.055C4.00004 154.555 53.9912 72.5552 151.5 72.5549H234.46ZM274.999 231.472H146.327C146.327 231.472 133.875 228.755 133.497 215.555C133.12 202.355 146.327 198.472 146.327 198.472H274.999V231.472Z" fill="#000000"/>
<path d="M269.997 31.7083C270.128 26.9399 276.226 25.0448 279.036 28.8994L292.745 47.7039C293.603 48.8808 294.932 49.6251 296.383 49.7422L319.374 51.5971C323.866 51.9596 325.623 57.6139 322.128 60.4589L304.238 75.018C303.109 75.9374 302.436 77.3035 302.396 78.7594L301.76 102.022C301.63 106.791 295.532 108.686 292.722 104.831L279.013 86.0265C278.155 84.8496 276.826 84.1053 275.375 83.9882L252.384 82.1333C247.892 81.7708 246.135 76.1165 249.63 73.2715L267.519 58.7124C268.649 57.793 269.322 56.4269 269.361 54.971L269.997 31.7083Z" fill="#000000"/>
<path d="M67 542.554C67 532.061 58.4934 523.554 48 523.554C37.5066 523.554 29 532.061 29 542.554C29 553.048 37.5066 561.554 48 561.554V590.554C21.4903 590.554 0 569.064 0 542.554C0 516.045 21.4903 494.554 48 494.554C74.5097 494.554 96 516.045 96 542.554C96 569.064 74.5097 590.554 48 590.554V561.554C58.4934 561.554 67 553.048 67 542.554Z" fill="#000000"/>
<path d="M303 214.054C303 206.599 296.956 200.554 289.5 200.554C282.044 200.554 276 206.599 276 214.054C276 221.51 282.044 227.554 289.5 227.554V248.554C270.446 248.554 255 233.108 255 214.054C255 195.001 270.446 179.554 289.5 179.554C308.554 179.554 324 195.001 324 214.054C324 233.108 308.554 248.554 289.5 248.554V227.554C296.956 227.554 303 221.51 303 214.054Z" fill="#000000"/>
</svg>