<svg xmlns="http://www.w3.org/2000/svg" xmlns:xlink="http://www.w3.org/1999/xlink" width="1368" zoomAndPan="magnify" viewBox="0 0 1026 368.999991" height="492" preserveAspectRatio="xMidYMid meet" version="1.0"><defs><g/><clipPath id="5d574ea94d"><path d="M 144 35.488281 L 160 35.488281 L 160 52 L 144 52 Z M 144 35.488281 " clip-rule="nonzero"/></clipPath><clipPath id="e0f7812133"><path d="M 2 69 L 197.25 69 L 197.25 301 L 2 301 Z M 2 69 " clip-rule="nonzero"/></clipPath><clipPath id="0c33b46023"><path d="M 0 267 L 46 267 L 46 312.988281 L 0 312.988281 Z M 0 267 " clip-rule="nonzero"/></clipPath></defs><g clip-path="url(#5d574ea94d)"><path fill="#000000" d="M 145.917969 50.9375 C 144.71875 49.945312 144.546875 48.171875 145.535156 46.96875 L 154.144531 36.515625 C 155.132812 35.3125 156.910156 35.140625 158.109375 36.128906 C 159.3125 37.121094 159.484375 38.894531 158.496094 40.097656 L 149.886719 50.550781 C 148.898438 51.753906 147.121094 51.925781 145.917969 50.9375 Z M 145.917969 50.9375 "  fill-rule="nonzero"/></g><path fill="#000000" d="M 163.941406 62.992188 C 163.941406 61.4375 165.203125 60.175781 166.761719 60.175781 L 172.867188 60.175781 C 174.425781 60.175781 175.6875 61.4375 175.6875 62.992188 C 175.6875 64.550781 174.425781 65.8125 172.867188 65.8125 L 166.761719 65.8125 C 165.203125 65.8125 163.941406 64.550781 163.941406 62.992188 Z M 163.941406 62.992188 "  fill-rule="nonzero"/><g clip-path="url(#e0f7812133)"><path fill="#000000" d="M 110.136719 69.570312 C 109.214844 73.929688 112.078125 78.8125 117.308594 79.242188 L 123.546875 79.753906 C 125.082031 79.882812 126.53125 80.445312 127.730469 81.359375 C 127.347656 84.878906 124.296875 88.425781 119.082031 90.472656 L 62.710938 90.472656 C 50.734375 90.472656 21.375 106.679688 21.375 140.265625 C 21.375 173.851562 55.195312 188.648438 60.597656 188.648438 L 146.328125 188.648438 C 169.109375 188.648438 197.292969 215.1875 197.292969 244.78125 C 197.292969 274.375 168.78125 300.210938 146.328125 300.210938 L 31.945312 300.210938 L 31.945312 280.484375 L 137.636719 280.484375 C 164.648438 280.484375 176.390625 260.753906 176.390625 244.78125 C 176.390625 228.8125 163.941406 209.316406 137.636719 209.316406 L 71.167969 209.316406 C 26.195312 209.316406 2.351562 172.441406 2.117188 140.265625 C 1.882812 108.089844 25.363281 69.570312 71.167969 69.570312 Z M 129.179688 144.21875 L 68.738281 144.21875 C 68.738281 144.21875 62.890625 142.941406 62.710938 136.742188 C 62.535156 130.542969 68.738281 128.71875 68.738281 128.71875 L 129.179688 128.71875 Z M 129.179688 144.21875 "  fill-rule="nonzero"/></g><path fill="#000000" d="M 126.832031 50.382812 C 126.894531 48.140625 129.757812 47.25 131.078125 49.0625 L 137.515625 57.894531 C 137.921875 58.449219 138.542969 58.796875 139.226562 58.851562 L 150.027344 59.722656 C 152.136719 59.894531 152.960938 62.550781 151.320312 63.886719 L 142.914062 70.726562 C 142.386719 71.160156 142.070312 71.800781 142.050781 72.484375 L 141.75 83.410156 C 141.691406 85.652344 138.828125 86.542969 137.507812 84.730469 L 131.066406 75.898438 C 130.664062 75.34375 130.039062 74.996094 129.359375 74.941406 L 118.558594 74.070312 C 116.449219 73.898438 115.621094 71.242188 117.265625 69.90625 L 125.667969 63.066406 C 126.199219 62.636719 126.515625 61.992188 126.53125 61.308594 Z M 126.832031 50.382812 "  fill-rule="nonzero"/><g clip-path="url(#0c33b46023)"><path fill="#000000" d="M 31.476562 290.347656 C 31.476562 285.417969 27.480469 281.421875 22.550781 281.421875 C 17.621094 281.421875 13.625 285.417969 13.625 290.347656 C 13.625 295.277344 17.621094 299.273438 22.550781 299.273438 L 22.550781 312.894531 C 10.097656 312.894531 0.00390625 302.800781 0.00390625 290.347656 C 0.00390625 277.894531 10.097656 267.800781 22.550781 267.800781 C 35.003906 267.800781 45.097656 277.894531 45.097656 290.347656 C 45.097656 302.800781 35.003906 312.894531 22.550781 312.894531 L 22.550781 299.273438 C 27.480469 299.273438 31.476562 295.277344 31.476562 290.347656 Z M 31.476562 290.347656 "  fill-rule="nonzero"/></g><path fill="#000000" d="M 142.335938 136.039062 C 142.335938 132.535156 139.496094 129.695312 135.992188 129.695312 C 132.492188 129.695312 129.652344 132.535156 129.652344 136.039062 C 129.652344 139.539062 132.492188 142.378906 135.992188 142.378906 L 135.992188 152.242188 C 127.042969 152.242188 119.785156 144.988281 119.785156 136.039062 C 119.785156 127.085938 127.042969 119.832031 135.992188 119.832031 C 144.941406 119.832031 152.199219 127.085938 152.199219 136.039062 C 152.199219 144.988281 144.941406 152.242188 135.992188 152.242188 L 135.992188 142.378906 C 139.496094 142.378906 142.335938 139.539062 142.335938 136.039062 Z M 142.335938 136.039062 "  fill-rule="nonzero"/><g fill="#000000" ><g transform="translate(223.730681, 254.361934)"><g><path d="M 68.15625 1.9375 C 61.5625 1.9375 55.109375 1.429688 48.796875 0.421875 C 42.492188 -0.578125 36.546875 -2.113281 30.953125 -4.1875 C 25.367188 -6.269531 20.351562 -8.816406 15.90625 -11.828125 C 13.757812 -13.398438 12.289062 -15.1875 11.5 -17.1875 C 10.707031 -19.195312 10.488281 -21.171875 10.84375 -23.109375 C 11.207031 -25.046875 12.035156 -26.726562 13.328125 -28.15625 C 14.617188 -29.59375 16.195312 -30.488281 18.0625 -30.84375 C 19.925781 -31.207031 22.003906 -30.601562 24.296875 -29.03125 C 30.742188 -24.875 37.550781 -21.828125 44.71875 -19.890625 C 51.882812 -17.953125 59.695312 -16.984375 68.15625 -16.984375 C 80.34375 -16.984375 89.335938 -19.164062 95.140625 -23.53125 C 100.941406 -27.90625 103.84375 -33.609375 103.84375 -40.640625 C 103.84375 -46.367188 101.765625 -50.914062 97.609375 -54.28125 C 93.453125 -57.65625 86.5 -60.34375 76.75 -62.34375 L 53.75 -67.078125 C 40.132812 -69.941406 29.992188 -74.671875 23.328125 -81.265625 C 16.660156 -87.859375 13.328125 -96.75 13.328125 -107.9375 C 13.328125 -114.664062 14.722656 -120.828125 17.515625 -126.421875 C 20.316406 -132.015625 24.222656 -136.851562 29.234375 -140.9375 C 34.253906 -145.019531 40.273438 -148.132812 47.296875 -150.28125 C 54.316406 -152.4375 61.988281 -153.515625 70.3125 -153.515625 C 79.195312 -153.515625 87.539062 -152.363281 95.34375 -150.0625 C 103.15625 -147.769531 110.144531 -144.257812 116.3125 -139.53125 C 118.175781 -138.238281 119.429688 -136.625 120.078125 -134.6875 C 120.722656 -132.757812 120.863281 -130.863281 120.5 -129 C 120.144531 -127.132812 119.320312 -125.554688 118.03125 -124.265625 C 116.738281 -122.972656 115.085938 -122.21875 113.078125 -122 C 111.078125 -121.789062 108.859375 -122.476562 106.421875 -124.0625 C 100.835938 -127.78125 95.140625 -130.460938 89.328125 -132.109375 C 83.523438 -133.765625 77.113281 -134.59375 70.09375 -134.59375 C 63.070312 -134.59375 56.941406 -133.515625 51.703125 -131.359375 C 46.472656 -129.210938 42.457031 -126.203125 39.65625 -122.328125 C 36.863281 -118.460938 35.46875 -113.878906 35.46875 -108.578125 C 35.46875 -102.554688 37.398438 -97.753906 41.265625 -94.171875 C 45.140625 -90.585938 51.59375 -87.863281 60.625 -86 L 83.421875 -81.265625 C 97.753906 -78.253906 108.429688 -73.59375 115.453125 -67.28125 C 122.472656 -60.976562 125.984375 -52.597656 125.984375 -42.140625 C 125.984375 -35.398438 124.617188 -29.34375 121.890625 -23.96875 C 119.171875 -18.59375 115.300781 -13.96875 110.28125 -10.09375 C 105.269531 -6.226562 99.21875 -3.253906 92.125 -1.171875 C 85.03125 0.898438 77.039062 1.9375 68.15625 1.9375 Z M 68.15625 1.9375 "/></g></g></g><g fill="#000000" ><g transform="translate(357.45736, 254.361934)"><g><path d="M 26.015625 40.203125 C 22.578125 40.203125 19.925781 39.269531 18.0625 37.40625 C 16.195312 35.539062 15.265625 32.816406 15.265625 29.234375 L 15.265625 -95.453125 C 15.265625 -99.035156 16.195312 -101.757812 18.0625 -103.625 C 19.925781 -105.488281 22.503906 -106.421875 25.796875 -106.421875 C 29.234375 -106.421875 31.882812 -105.488281 33.75 -103.625 C 35.613281 -101.757812 36.546875 -99.035156 36.546875 -95.453125 L 36.546875 -76.75 L 34.1875 -81.265625 C 36.476562 -89.003906 40.988281 -95.203125 47.71875 -99.859375 C 54.457031 -104.523438 62.414062 -106.859375 71.59375 -106.859375 C 80.90625 -106.859375 89.035156 -104.632812 95.984375 -100.1875 C 102.941406 -95.75 108.316406 -89.515625 112.109375 -81.484375 C 115.910156 -73.453125 117.8125 -63.773438 117.8125 -52.453125 C 117.8125 -41.421875 115.910156 -31.785156 112.109375 -23.546875 C 108.316406 -15.304688 102.976562 -9 96.09375 -4.625 C 89.21875 -0.25 81.050781 1.9375 71.59375 1.9375 C 62.5625 1.9375 54.675781 -0.351562 47.9375 -4.9375 C 41.207031 -9.53125 36.695312 -15.625 34.40625 -23.21875 L 36.984375 -23.21875 L 36.984375 29.234375 C 36.984375 32.816406 36.015625 35.539062 34.078125 37.40625 C 32.140625 39.269531 29.453125 40.203125 26.015625 40.203125 Z M 66.21875 -14.828125 C 72.238281 -14.828125 77.46875 -16.257812 81.90625 -19.125 C 86.351562 -22 89.796875 -26.226562 92.234375 -31.8125 C 94.671875 -37.40625 95.890625 -44.285156 95.890625 -52.453125 C 95.890625 -64.785156 93.203125 -74.101562 87.828125 -80.40625 C 82.453125 -86.71875 75.25 -89.875 66.21875 -89.875 C 60.34375 -89.875 55.144531 -88.472656 50.625 -85.671875 C 46.113281 -82.878906 42.640625 -78.6875 40.203125 -73.09375 C 37.765625 -67.507812 36.546875 -60.628906 36.546875 -52.453125 C 36.546875 -40.273438 39.269531 -30.957031 44.71875 -24.5 C 50.164062 -18.050781 57.332031 -14.828125 66.21875 -14.828125 Z M 66.21875 -14.828125 "/></g></g></g><g fill="#000000" ><g transform="translate(484.519156, 254.361934)"><g><path d="M 48.8125 1.9375 C 41.5 1.9375 34.9375 0.503906 29.125 -2.359375 C 23.320312 -5.234375 18.769531 -9.101562 15.46875 -13.96875 C 12.175781 -18.84375 10.53125 -24.363281 10.53125 -30.53125 C 10.53125 -38.269531 12.5 -44.394531 16.4375 -48.90625 C 20.382812 -53.425781 26.910156 -56.648438 36.015625 -58.578125 C 45.117188 -60.515625 57.410156 -61.484375 72.890625 -61.484375 L 82.984375 -61.484375 L 82.984375 -48.15625 L 73.09375 -48.15625 C 62.78125 -48.15625 54.613281 -47.65625 48.59375 -46.65625 C 42.570312 -45.65625 38.304688 -43.972656 35.796875 -41.609375 C 33.285156 -39.242188 32.03125 -35.976562 32.03125 -31.8125 C 32.03125 -26.375 33.894531 -21.96875 37.625 -18.59375 C 41.351562 -15.226562 46.515625 -13.546875 53.109375 -13.546875 C 58.410156 -13.546875 63.066406 -14.796875 67.078125 -17.296875 C 71.085938 -19.804688 74.273438 -23.210938 76.640625 -27.515625 C 79.003906 -31.816406 80.1875 -36.765625 80.1875 -42.359375 L 80.1875 -67.078125 C 80.1875 -75.242188 78.46875 -81.117188 75.03125 -84.703125 C 71.59375 -88.285156 65.929688 -90.078125 58.046875 -90.078125 C 53.460938 -90.078125 48.695312 -89.503906 43.75 -88.359375 C 38.800781 -87.210938 33.675781 -85.28125 28.375 -82.5625 C 25.9375 -81.414062 23.859375 -81.054688 22.140625 -81.484375 C 20.421875 -81.910156 19.0625 -82.875 18.0625 -84.375 C 17.0625 -85.882812 16.523438 -87.535156 16.453125 -89.328125 C 16.378906 -91.117188 16.804688 -92.875 17.734375 -94.59375 C 18.671875 -96.320312 20.285156 -97.613281 22.578125 -98.46875 C 28.878906 -101.476562 35.113281 -103.628906 41.28125 -104.921875 C 47.445312 -106.210938 53.25 -106.859375 58.6875 -106.859375 C 68.289062 -106.859375 76.210938 -105.351562 82.453125 -102.34375 C 88.691406 -99.332031 93.3125 -94.742188 96.3125 -88.578125 C 99.320312 -82.410156 100.828125 -74.457031 100.828125 -64.71875 L 100.828125 -9.453125 C 100.828125 -6.015625 99.96875 -3.328125 98.25 -1.390625 C 96.53125 0.535156 94.023438 1.5 90.734375 1.5 C 87.578125 1.5 85.066406 0.535156 83.203125 -1.390625 C 81.335938 -3.328125 80.40625 -6.015625 80.40625 -9.453125 L 80.40625 -23.4375 L 82.34375 -23.4375 C 81.195312 -18.132812 79.082031 -13.582031 76 -9.78125 C 72.914062 -5.976562 69.082031 -3.070312 64.5 -1.0625 C 59.914062 0.9375 54.6875 1.9375 48.8125 1.9375 Z M 48.8125 1.9375 "/></g></g></g><g fill="#000000" ><g transform="translate(599.971244, 254.361934)"><g><path d="M 26.234375 1.5 C 22.648438 1.5 19.925781 0.535156 18.0625 -1.390625 C 16.195312 -3.328125 15.265625 -6.015625 15.265625 -9.453125 L 15.265625 -95.453125 C 15.265625 -99.035156 16.195312 -101.757812 18.0625 -103.625 C 19.925781 -105.488281 22.503906 -106.421875 25.796875 -106.421875 C 29.234375 -106.421875 31.847656 -105.488281 33.640625 -103.625 C 35.429688 -101.757812 36.328125 -99.035156 36.328125 -95.453125 L 36.328125 -79.765625 L 34.1875 -79.765625 C 36.476562 -88.367188 40.703125 -94.890625 46.859375 -99.328125 C 53.023438 -103.773438 60.910156 -106.351562 70.515625 -107.0625 C 73.097656 -107.207031 75.140625 -106.5625 76.640625 -105.125 C 78.148438 -103.695312 78.976562 -101.476562 79.125 -98.46875 C 79.40625 -95.457031 78.753906 -93.054688 77.171875 -91.265625 C 75.597656 -89.472656 73.164062 -88.4375 69.875 -88.15625 L 65.796875 -87.71875 C 56.472656 -86.863281 49.375 -83.925781 44.5 -78.90625 C 39.625 -73.882812 37.1875 -67.003906 37.1875 -58.265625 L 37.1875 -9.453125 C 37.1875 -6.015625 36.289062 -3.328125 34.5 -1.390625 C 32.707031 0.535156 29.953125 1.5 26.234375 1.5 Z M 26.234375 1.5 "/></g></g></g><g fill="#000000" ><g transform="translate(680.164247, 254.361934)"><g><path d="M 26.015625 1.5 C 22.578125 1.5 19.925781 0.535156 18.0625 -1.390625 C 16.195312 -3.328125 15.265625 -6.015625 15.265625 -9.453125 L 15.265625 -142.109375 C 15.265625 -145.691406 16.195312 -148.414062 18.0625 -150.28125 C 19.925781 -152.144531 22.578125 -153.078125 26.015625 -153.078125 C 29.453125 -153.078125 32.140625 -152.144531 34.078125 -150.28125 C 36.015625 -148.414062 36.984375 -145.691406 36.984375 -142.109375 L 36.984375 -59.125 L 37.40625 -59.125 L 77.609375 -99.109375 C 79.910156 -101.410156 81.988281 -103.203125 83.84375 -104.484375 C 85.707031 -105.773438 88.144531 -106.421875 91.15625 -106.421875 C 94.164062 -106.421875 96.457031 -105.628906 98.03125 -104.046875 C 99.613281 -102.472656 100.40625 -100.578125 100.40625 -98.359375 C 100.40625 -96.140625 99.332031 -93.882812 97.1875 -91.59375 L 54.609375 -49.453125 L 54.609375 -59.5625 L 101.046875 -13.328125 C 103.335938 -11.035156 104.410156 -8.742188 104.265625 -6.453125 C 104.128906 -4.160156 103.203125 -2.257812 101.484375 -0.75 C 99.765625 0.75 97.613281 1.5 95.03125 1.5 C 91.726562 1.5 89.109375 0.859375 87.171875 -0.421875 C 85.242188 -1.710938 82.988281 -3.648438 80.40625 -6.234375 L 37.40625 -47.9375 L 36.984375 -47.9375 L 36.984375 -9.453125 C 36.984375 -2.148438 33.328125 1.5 26.015625 1.5 Z M 26.015625 1.5 "/></g></g></g><g fill="#000000" ><g transform="translate(791.101434, 254.361934)"><g><path d="M 26.015625 1.296875 C 22.578125 1.296875 19.925781 0.257812 18.0625 -1.8125 C 16.195312 -3.894531 15.265625 -6.800781 15.265625 -10.53125 L 15.265625 -94.390625 C 15.265625 -98.109375 16.195312 -100.972656 18.0625 -102.984375 C 19.925781 -104.992188 22.578125 -106 26.015625 -106 C 29.453125 -106 32.140625 -104.992188 34.078125 -102.984375 C 36.015625 -100.972656 36.984375 -98.109375 36.984375 -94.390625 L 36.984375 -10.53125 C 36.984375 -6.800781 36.050781 -3.894531 34.1875 -1.8125 C 32.320312 0.257812 29.597656 1.296875 26.015625 1.296875 Z M 26.015625 -128.359375 C 21.710938 -128.359375 18.378906 -129.429688 16.015625 -131.578125 C 13.648438 -133.734375 12.46875 -136.742188 12.46875 -140.609375 C 12.46875 -144.617188 13.648438 -147.660156 16.015625 -149.734375 C 18.378906 -151.816406 21.710938 -152.859375 26.015625 -152.859375 C 30.316406 -152.859375 33.648438 -151.816406 36.015625 -149.734375 C 38.378906 -147.660156 39.5625 -144.617188 39.5625 -140.609375 C 39.5625 -136.742188 38.378906 -133.734375 36.015625 -131.578125 C 33.648438 -129.429688 30.316406 -128.359375 26.015625 -128.359375 Z M 26.015625 -128.359375 "/></g></g></g><g fill="#000000" ><g transform="translate(843.345129, 254.361934)"><g><path d="M 55.25 1.9375 C 46.082031 1.9375 38.019531 -0.25 31.0625 -4.625 C 24.113281 -9 18.703125 -15.304688 14.828125 -23.546875 C 10.960938 -31.785156 9.03125 -41.421875 9.03125 -52.453125 C 9.03125 -63.773438 10.960938 -73.453125 14.828125 -81.484375 C 18.703125 -89.515625 24.113281 -95.75 31.0625 -100.1875 C 38.019531 -104.632812 46.082031 -106.859375 55.25 -106.859375 C 64.425781 -106.859375 72.347656 -104.597656 79.015625 -100.078125 C 85.679688 -95.566406 90.160156 -89.515625 92.453125 -81.921875 L 90.078125 -81.921875 L 90.078125 -142.109375 C 90.078125 -145.691406 91.007812 -148.414062 92.875 -150.28125 C 94.738281 -152.144531 97.390625 -153.078125 100.828125 -153.078125 C 104.273438 -153.078125 106.960938 -152.144531 108.890625 -150.28125 C 110.828125 -148.414062 111.796875 -145.691406 111.796875 -142.109375 L 111.796875 -9.453125 C 111.796875 -6.015625 110.863281 -3.328125 109 -1.390625 C 107.132812 0.535156 104.484375 1.5 101.046875 1.5 C 97.609375 1.5 94.957031 0.535156 93.09375 -1.390625 C 91.226562 -3.328125 90.296875 -6.015625 90.296875 -9.453125 L 90.296875 -28.375 L 92.671875 -23.65625 C 90.367188 -15.914062 85.882812 -9.710938 79.21875 -5.046875 C 72.5625 -0.390625 64.570312 1.9375 55.25 1.9375 Z M 60.84375 -14.828125 C 66.71875 -14.828125 71.875 -16.257812 76.3125 -19.125 C 80.757812 -22 84.238281 -26.226562 86.75 -31.8125 C 89.257812 -37.40625 90.515625 -44.285156 90.515625 -52.453125 C 90.515625 -64.785156 87.789062 -74.101562 82.34375 -80.40625 C 76.894531 -86.71875 69.726562 -89.875 60.84375 -89.875 C 54.820312 -89.875 49.585938 -88.472656 45.140625 -85.671875 C 40.703125 -82.878906 37.226562 -78.6875 34.71875 -73.09375 C 32.207031 -67.507812 30.953125 -60.628906 30.953125 -52.453125 C 30.953125 -40.273438 33.675781 -30.957031 39.125 -24.5 C 44.570312 -18.050781 51.8125 -14.828125 60.84375 -14.828125 Z M 60.84375 -14.828125 "/></g></g></g></svg>